<?xml version="1.0" encoding="utf-8"?>
<!-- Generator: Adobe Illustrator 23.0.2, SVG Export Plug-In . SVG Version: 6.00 Build 0)  -->
<svg version="1.1"
	 id="svg8" xmlns:cc="http://creativecommons.org/ns#" xmlns:dc="http://purl.org/dc/elements/1.1/" xmlns:inkscape="http://www.inkscape.org/namespaces/inkscape" xmlns:rdf="http://www.w3.org/1999/02/22-rdf-syntax-ns#" xmlns:sodipodi="http://sodipodi.sourceforge.net/DTD/sodipodi-0.dtd" xmlns:svg="http://www.w3.org/2000/svg"
	 xmlns="http://www.w3.org/2000/svg" xmlns:xlink="http://www.w3.org/1999/xlink" x="0px" y="0px" viewBox="0 0 127.1 126.6"
	 style="enable-background:new 0 0 127.1 126.6;" xml:space="preserve">
<style type="text/css">
	.st0{fill:#FFE529;}
</style>
<sodipodi:namedview  bordercolor="#666666" borderopacity="1.0" id="base" inkscape:current-layer="layer1" inkscape:cx="144.28199" inkscape:cy="1055.9732" inkscape:document-units="mm" inkscape:pageopacity="0.0" inkscape:pageshadow="2" inkscape:window-height="715" inkscape:window-maximized="1" inkscape:window-width="1366" inkscape:window-x="-8" inkscape:window-y="-8" inkscape:zoom="2.8" pagecolor="#ffffff" showgrid="false">
	</sodipodi:namedview>
<g id="layer1" inkscape:groupmode="layer" inkscape:label="Layer 1">
	<path id="path21" inkscape:connector-curvature="0" class="st0" d="M6.4,94.4c-3.3-2-3.9-4-3.9-13.5v-8.2h44.2
		c42,0,44.4-0.1,48.9-1.5c6.4-2,11.6-5.1,17.1-10.2c7.1-6.6,10.2-13,7.9-16.5c-1-1.6-1-5.5,0.1-5.5c1.2,0,3.4,1.8,4.3,3.6
		c1.3,2.6,2.2,23.9,1.1,28.7c-1.4,6.6-10.9,16.6-19.8,20.7c-8.7,4-9.4,4.1-55.1,4C10.2,95.9,8.8,95.8,6.4,94.4L6.4,94.4z M10.6,68.1
		c-6.1-1-10-4.3-10-8.5c0-3.8,2-6.1,8.4-9.6c3.7-2.1,7.7-5.1,11-8.5c2.9-2.9,6.4-5.9,7.7-6.6c6.2-3.2,20-5.2,25.5-3.7
		c1.5,0.4,1.4,0.6-1.7,2.7c-3,2-4.1,2.3-9.2,2.4c-6.5,0.1-12.8,2.6-12.8,5c0,2,1.8,2.4,4.5,0.9c2.8-1.4,9.6-2.7,10.1-1.8
		c0.5,0.9-3.6,4.1-8.7,6.8c-4.9,2.6-9.7,7.4-9.7,9.6c0,1.1-0.7,1.6-3.2,1.9c-1.8,0.3-4.1,0.1-5.3-0.3c-2.1-0.8-2.1-0.8-0.8-2.8
		c1.2-1.9,1.2-2-0.2-3c-1.3-1-1.6-0.9-3.1,0.9c-4.4,5.1-0.5,9.4,8.3,9.4c4.4,0,4.9,0.2,5.6,1.8c0.7,1.5,0.6,1.9-0.4,2.2
		c-1.7,0.5-10.8,2-11.8,1.8C14.4,68.8,12.5,68.4,10.6,68.1z M66,68.1c-6.1-1-10.3-4.7-10.3-8.8c0-3,3.1-6.2,9.9-10.2
		c4.6-2.8,8.2-5.6,10.6-8.3c2-2.3,5-4.9,6.6-5.7c7.4-3.8,20.5-5.5,27.2-3.6c3.9,1.1,7.2,4.4,7.2,7.3c0,3.6-2.9,6.8-13.9,15.7
		C95.1,61,91.6,63.3,87.2,65c-4.7,1.8-14.8,4.1-17,3.8C69.9,68.8,68,68.4,66,68.1z M84.2,61.5c2.7-1.1,3.4-1.6,3.4-3.1
		c0-2.1-0.2-2.1-6.7-0.3c-6.1,1.7-12.1,0.4-9.6-2.1c1.2-1.2,1-3.3-0.3-3.8c-1.8-0.7-4.1,2.2-4.1,5c0,2.4,1.4,4.3,3.8,5.2
		C73.1,63.2,81,62.7,84.2,61.5z M106.6,44.7c2.3-2.3,0.6-6.8-2.9-8c-7-2.4-20.5,1.6-19,5.5c0.6,1.5,1.7,1.4,5.9-0.4
		c3.5-1.5,10.6-2.2,12.3-1.1c0.5,0.3,0.6,1,0.2,1.8C101.7,45.1,104.4,46.9,106.6,44.7L106.6,44.7z M34.4,66.8
		c-4.1-2-5.9-4.2-5.9-7.3c0-3.8,2.3-6.3,9.5-10.5c4.3-2.5,7.9-5.3,10.6-8.3c4.4-4.8,7.9-6.8,15.9-8.9c4.6-1.2,15.4-1.5,17.9-0.4
		c0.8,0.4,1.1,0.7,0.5,0.7c-0.5,0-2.3,0.9-4,2c-2.5,1.6-4.1,1.9-8.8,2.1c-6.9,0.2-12.9,2.4-12.9,4.9c0,2.2,1.3,2.6,4.1,1.3
		c3-1.4,10.1-3,10.7-2.4c0.8,0.8-2.3,3.4-8,6.8c-6.1,3.6-9.3,6.4-10.5,9.5c-0.8,2-4.5,3.4-7.1,2.5c-0.7-0.2-1.8-0.6-2.4-0.8
		c-1.1-0.3-1.1-0.6,0.1-2.3c1.2-1.8,1.2-2.1,0.1-3.1c-1.1-1.1-1.4-1-3.1,0.6c-2.3,2.2-2.5,5.4-0.4,7.5c1.9,1.9,4.3,2.5,8.9,2.2
		c3.3-0.2,3.8-0.1,4.8,1.7c1,1.8,1,2.1-0.1,2.5c-0.7,0.3-4.8,0.7-9.1,0.8C38.6,68.2,36.9,68,34.4,66.8L34.4,66.8z"/>
</g>
</svg>
