<?xml version="1.0"?>
<svg xmlns="http://www.w3.org/2000/svg" height="512px" viewBox="0 0 34 58" width="512px"><g><g id="Page-1" fill="none" fill-rule="evenodd"><g id="032---Cocktail" fill="rgb(0,0,0)" fill-rule="nonzero"><path id="Shape" d="m13.89 1.994c.076.008 7.088.871 9.6 6.687-1.2319275.7166424-2.1009208 1.9234159-2.39 3.319h9.8c-.4784327-2.3264168-2.5248992-3.99700171-4.9-4-.2008994.0053154-.4012797.02301566-.6.053-2.858-7.017-10.922-8.006-11.29-8.047-.355122-.03929922-.7042341.11384213-.9158293.4017372-.2115951.28789506-.2535269.66680573-.11.99400001s.4507073.55296358.8058293.59226279z" data-original="#000000" class="active-path" data-old_color="#000000" fill="#FFE529"/><path id="Shape" d="m13.5 24h-2.392c-1.20620678 1.983312-2.91709279 3.6110348-4.958 4.717l.429 2.337c3.04014647-1.4984949 5.4806374-3.9858844 6.921-7.054z" data-original="#000000" class="active-path" data-old_color="#000000" fill="#FFE529"/><path id="Shape" d="m8.427 7.383c1.47893906 1.26081168 2.6544427 2.838974 3.439 4.617h2.168c-1.9893705-5.49378786-6.95493007-9.35843905-12.769-9.938l.428 2.338c2.48360974.33037639 4.82052285 1.36557268 6.734 2.983z" data-original="#000000" class="active-path" data-old_color="#000000" fill="#FFE529"/><path id="Shape" d="m8.7 24h-3.41l.481 2.628c1.12440438-.6954388 2.11617762-1.585292 2.929-2.628z" data-original="#000000" class="active-path" data-old_color="#000000" fill="#FFE529"/><path id="Shape" d="m1.42 14h-1.32c.129 1.375.409 4.279.8 8h1.99z" data-original="#000000" class="active-path" data-old_color="#000000" fill="#FFE529"/><path id="Shape" d="m7.128 8.9c-1.44949687-1.2243993-3.18899404-2.05627285-5.052-2.416l1.011 5.516h6.551c-.64000667-1.1781631-1.49075959-2.22889385-2.51-3.1z" data-original="#000000" class="active-path" data-old_color="#000000" fill="#FFE529"/><path id="Shape" d="m14.742 14.574c-.036-.194-.088-.383-.13-.574h-2.05c.079.308.154.618.212.935.4403533 2.3721705.2047166 4.8203663-.68 7.065h2.2c.7499677-2.4022595.9037298-4.9510025.448-7.426z" data-original="#000000" class="active-path" data-old_color="#000000" fill="#FFE529"/><path id="Shape" d="m9.918 22c.9995509-2.0824867 1.3108894-4.4289073.889-6.7-.0828316-.4394988-.1920289-.8736163-.327-1.3h-7.027l1.466 8z" data-original="#000000" class="active-path" data-old_color="#000000" fill="#FFE529"/><path id="Shape" d="m3.865 46.278c.585 3.936 1.2 7.526 1.819 10.27.08613651.3940427.40250044.6965657.8.765 3.47930923.5286416 6.9974854.7584806 10.516.687 3.5175117.071182 7.034666-.1586558 10.513-.687.3974996-.0684343.7138635-.3709573.8-.765.618-2.744 1.234-6.334 1.819-10.27-2.194.855-6.137 1.722-13.132 1.722s-10.938-.867-13.135-1.722z" data-original="#000000" class="active-path" data-old_color="#000000" fill="#FFE529"/><path id="Shape" d="m26 18c2.3752386-.0026123 4.421918-1.6733709 4.9-4h-9.8c.478082 2.3266291 2.5247614 3.9973877 4.9 4z" data-original="#000000" class="active-path" data-old_color="#000000" fill="#FFE529"/><path id="Shape" d="m32.92 14c-.4911587 3.4444139-3.4407437 6.0032376-6.92 6.0032376s-6.4288413-2.5588237-6.92-6.0032376h-2.421c.015.072.036.141.049.214.4740304 2.5879028.3574639 5.2494484-.341 7.786h16.738c.388-3.721.668-6.626.8-8z" data-original="#000000" class="active-path" data-old_color="#000000" fill="#FFE529"/><path id="Shape" d="m6.186 33.407c-.27795697.1084379-.58981536.0870976-.85040985-.058193s-.44270175-.3993536-.49659015-.692807l-1.586-8.656h-2.146c.625 5.858 1.472 13.233 2.416 19.923 1.342.763 4.893 2.077 13.477 2.077s12.135-1.314 13.477-2.077c.944-6.69 1.791-14.065 2.416-19.923h-17.211c-1.7411243 4.3053817-5.1744143 7.7064936-9.496 9.407zm11.814-4.407c0-1.6568542 1.3431458-3 3-3h6c1.6568542 0 3 1.3431458 3 3v6c0 1.6568542-1.3431458 3-3 3h-6c-1.6568542 0-3-1.3431458-3-3zm-3.513 12.466-2.947 1.421c-.7167475.345445-1.54136642.3920145-2.29244978.1294635-.75108335-.262551-1.36710617-.8127155-1.71255022-1.5294635l-1.421-2.948c-.34544505-.7167475-.39201446-1.5413664-.12946347-2.2924498.26255098-.7510833.81271551-1.3671061 1.52946347-1.7125502l2.948-1.421c.7167475-.345445 1.5413664-.3920145 2.2924498-.1294635.7510833.262551 1.3671061.8127155 1.7125502 1.5294635l1.421 2.948c.3453765.7168703.3917995 1.5415875.1290547 2.2926888-.2627447.7511013-.8131302 1.3670473-1.5300547 1.7123112z" data-original="#000000" class="active-path" data-old_color="#000000" fill="#FFE529"/><path id="Shape" d="m12.665 35.382c-.1150844-.2392333-.3205731-.4228872-.571179-.5104867-.250606-.0875996-.5257597-.0719547-.764821.0434867l-2.947 1.42c-.23923335.1150844-.42288718.3205731-.51048672.571179-.08759953.250606-.07195466.5257597.04348672.764821l1.42 2.947c.11508445.2392333.32057309.4228872.57117904.5104867.25060596.0875996.52575966.0719547.76482096-.0434867l2.947-1.42c.2392333-.1150844.4228872-.3205731.5104867-.571179.0875996-.250606.0719547-.5257597-.0434867-.764821z" data-original="#000000" class="active-path" data-old_color="#000000" fill="#FFE529"/><rect id="Rectangle-path" height="8" rx="1" width="8" x="20" y="28" data-original="#000000" class="active-path" data-old_color="#000000" fill="#FFE529"/></g></g></g> </svg>
