<?xml version="1.0"?>
<svg xmlns="http://www.w3.org/2000/svg" xmlns:xlink="http://www.w3.org/1999/xlink" version="1.1" id="Capa_1" x="0px" y="0px" viewBox="0 0 511.991 511.991" style="enable-background:new 0 0 511.991 511.991;" xml:space="preserve" width="512px" height="512px"><g><g>
	<g>
		<g>
			<polygon points="216.616,511.991 304.129,511.991 312.701,484.562 206.33,484.562    " data-original="#000000" class="active-path" data-old_color="#000000" fill="#FFFFFF"/>
			<path d="M363.182,174.366l-0.051,0.06c-5.942,7.55-12.591,14.517-19.855,20.806l-0.457,0.382     c-2.059,1.742-4.102,3.362-6.129,4.861l-0.271,0.2c-13.149,10.222-29.021,16.339-45.629,17.585     c-1.371,0.08-2.719,0.116-4.036,0.116c-0.472,0-0.896-0.055-1.36-0.064c-1.685-0.023-3.3-0.103-4.843-0.229     c-0.632-0.054-1.232-0.128-1.848-0.198c-1.567-0.17-3.053-0.374-4.444-0.617c-0.283-0.05-0.578-0.088-0.857-0.141l-0.281-0.046     c-1.03-0.203-1.813-0.42-2.716-0.627c-0.859-0.2-1.763-0.375-2.573-0.594c-0.131-0.035-0.305-0.065-0.434-0.101     c-0.258-0.071-0.485-0.184-0.742-0.258c-2.679-0.762-5.313-1.679-7.886-2.745l-0.171-0.059c-1.5-0.643-2.487-1.107-3.348-1.536     c-1.004-0.502-1.642-0.843-2.152-1.129l-0.001-0.001l-0.204-0.112l-0.196-0.107c-0.46-0.263-0.813-0.475-1.096-0.648     l-0.082-0.048c-3.381-1.681-6.617-3.098-9.819-4.459c-0.676-0.287-1.405-0.667-2.073-0.941c-0.468-0.191-0.892-0.311-1.356-0.497     c-56.525-22.542-84.336,3.244-85.577,4.432l-0.263,0.25v0c-7.846,9.029-14.473,19.049-19.71,29.804h253.567     C391.224,213.919,382.275,189.387,363.182,174.366z" data-original="#000000" class="active-path" data-old_color="#000000" fill="#FFFFFF"/>
			<path d="M151.304,186.46c0.353-0.199,0.66-0.39,1.029-0.59c1.41-0.763,2.924-1.53,4.57-2.285     c0.205-0.094,0.445-0.182,0.654-0.276c1.438-0.645,2.945-1.277,4.556-1.886c0.618-0.233,1.296-0.444,1.94-0.669     c1.285-0.451,2.584-0.89,3.972-1.301c0.81-0.239,1.666-0.451,2.51-0.674c1.333-0.352,2.687-0.687,4.106-0.99     c0.955-0.204,1.936-0.383,2.93-0.562c1.427-0.255,2.896-0.482,4.406-0.68c1.068-0.141,2.144-0.267,3.252-0.374     c1.573-0.152,3.201-0.249,4.855-0.328c1.144-0.055,2.275-0.115,3.458-0.131c0.481-0.007,0.922-0.054,1.41-0.054     c2.196-0.002,4.458,0.069,6.784,0.213l0.087,0.008c2.867,0.181,5.866,0.523,8.93,0.951c0.867,0.121,1.749,0.268,2.631,0.411     c2.542,0.412,5.149,0.917,7.821,1.516c0.744,0.167,1.465,0.303,2.22,0.485c3.351,0.807,6.803,1.777,10.355,2.912     c0.781,0.249,1.59,0.552,2.381,0.818c2.904,0.979,5.873,2.074,8.908,3.285c1.06,0.423,2.116,0.843,3.191,1.296     c3.852,1.623,7.77,3.371,11.825,5.399c0.326,0.163,0.642,0.345,0.946,0.545c0.158,0.092,0.695,0.412,1.041,0.623l0.507,0.28     l0.613,0.293c0.866,0.429,1.54,0.732,2.308,1.071c2.183,0.933,4.426,1.718,6.714,2.348c1.305,0.357,2.692,0.679,4.161,0.964     c0.259,0.045,0.71,0.152,0.964,0.223c0.876,0.165,1.795,0.297,2.723,0.421c14.749,1.478,29.534-2.423,41.634-10.985     c0.263-0.174,0.526-0.347,0.791-0.526c1.059-0.711,2.126-1.469,3.2-2.259c0.724-0.537,1.453-1.104,2.183-1.678     c0.736-0.575,1.471-1.142,2.213-1.756c7.784-6.611,14.797-14.079,20.907-22.262l0.026-0.023c2.092-2.746,4.19-5.604,6.295-8.718     c2.357-9.905-0.407-20.332-7.362-27.768c-1.544,2.361-3.212,4.639-4.998,6.823c-0.226,0.279-0.475,0.528-0.704,0.802     c-1.824,2.179-3.764,4.259-5.812,6.23c-0.611,0.592-1.223,1.174-1.851,1.744c-2.079,1.896-4.256,3.681-6.522,5.349     c-0.296,0.217-0.569,0.464-0.868,0.677c-2.498,1.756-5.093,3.371-7.772,4.837c-0.853,0.473-1.722,0.905-2.591,1.347     c-2.035,1.033-4.111,1.984-6.229,2.853c-0.853,0.35-1.688,0.728-2.552,1.051c-2.803,1.047-5.659,1.946-8.556,2.693     c-0.87,0.223-1.757,0.379-2.636,0.576c-2.222,0.502-4.467,0.916-6.736,1.242c-1.071,0.153-2.138,0.303-3.218,0.417     c-2.749,0.29-5.518,0.471-8.307,0.503c-0.34,0.004-0.672,0.061-1.013,0.061c-0.569,0.001-1.143-0.081-1.713-0.091     c-2.266-0.043-4.536-0.147-6.813-0.364c-1.217-0.116-2.43-0.307-3.648-0.473c-1.729-0.236-3.455-0.505-5.183-0.843     c-1.271-0.249-2.535-0.527-3.802-0.833c-1.747-0.42-3.485-0.913-5.222-1.442c-1.176-0.358-2.351-0.69-3.521-1.098     c-2.282-0.795-4.545-1.71-6.795-2.697c-0.535-0.235-1.083-0.396-1.616-0.641c-0.371-0.171-0.725-0.297-1.094-0.463     c-2.912-1.314-5.841-2.484-8.78-3.546c-0.954-0.347-1.9-0.677-2.839-0.991c-3.286-1.094-6.58-2.087-9.888-2.865     c-0.185-0.044-0.361-0.073-0.546-0.116c-7.429-1.724-15.022-2.644-22.648-2.742l-27.58,4.134     c-9.931,6.286-17.304,15.897-20.804,27.116v0c-0.944,5.011-0.302,10.193,1.836,14.822     C149.655,187.377,150.492,186.917,151.304,186.46z" data-original="#000000" class="active-path" data-old_color="#000000" fill="#FFFFFF"/>
			<path d="M274.647,20.964c0.46-2.571,1.862-10.411-9.848-20.893L264.75,0c-12.839,9.339-50.652,39.553-48.125,69.598     C240.54,58.544,271.446,38.848,274.647,20.964z" data-original="#000000" class="active-path" data-old_color="#000000" fill="#FFFFFF"/>
			<path d="M194.869,123.455c0.19,0.001,0.378,0.032,0.568,0.034c4.346,0.025,8.688,0.287,13.006,0.785     c0.16,0.018,0.319,0.053,0.478,0.073c3.627,0.44,7.434,1.119,11.348,1.959c1.301,0.278,2.599,0.585,3.897,0.905     c2.745,0.678,5.55,1.498,8.41,2.406c1.403,0.446,2.809,0.847,4.206,1.341c3.303,1.17,6.681,2.546,10.107,4.064     c0.667,0.296,1.346,0.502,2.011,0.809c24.096,11.612,52.722,8.336,73.572-8.42c5.13-4.274,9.526-9.359,13.013-15.054     c0.285-0.465,0.533-0.939,0.809-1.401c0.643-1.098,1.266-2.244,1.882-3.407c-1.663-31.19-21.728-58.398-51.035-69.201     c-17.414,29.548-67.103,49.912-73.509,52.437l-0.079,0.015c-0.177,0.069-0.357,0.138-0.439,0.164     c-15.982,5.905-28.867,18.07-35.68,33.688c5.642-0.809,11.335-1.2,17.035-1.169C194.602,123.476,194.755,123.474,194.869,123.455     z" data-original="#000000" class="active-path" data-old_color="#000000" fill="#FFFFFF"/>
			<path d="M394.486,259.629c-1.728-2.292-4.432-3.64-7.303-3.639H124.808c-2.87-0.001-5.575,1.346-7.302,3.639     c-1.728,2.292-2.279,5.263-1.488,8.022l10.154,35.541l4.484-8.969c2.987-5.968,8.987-9.835,15.656-10.09     c6.669-0.255,12.947,3.144,16.38,8.866l11.018,18.366l11.803-19.161c3.328-5.471,9.275-8.804,15.679-8.786     c6.404,0.018,12.332,3.385,15.629,8.875l11.692,18.982l11.857-19.071c3.328-5.471,9.275-8.804,15.679-8.786     c6.404,0.018,12.332,3.385,15.629,8.875l11.692,18.982l11.857-19.071c3.328-5.471,9.275-8.804,15.679-8.786     c6.404,0.018,12.332,3.385,15.629,8.875l11.692,18.982L349.303,293c3.432-5.722,9.71-9.121,16.378-8.866     s12.668,4.122,15.654,10.089l4.484,8.968l10.155-35.54C396.764,264.892,396.213,261.922,394.486,259.629z" data-original="#000000" class="active-path" data-old_color="#000000" fill="#FFFFFF"/>
			<polygon points="199.473,466.277 318.415,466.277 329.844,429.705 185.759,429.705    " data-original="#000000" class="active-path" data-old_color="#000000" fill="#FFFFFF"/>
			<path d="M375.817,324.08l-10.835-21.679l-11.022,18.375c-3.305,5.506-9.257,8.875-15.679,8.875s-12.373-3.369-15.679-8.875     l-11.696-18.982l-11.857,19.071c-3.327,5.471-9.273,8.804-15.677,8.786c-6.403-0.018-12.331-3.385-15.627-8.875l-11.696-18.982     l-11.857,19.071c-3.327,5.471-9.273,8.804-15.677,8.786c-6.403-0.018-12.331-3.385-15.627-8.875l-11.696-18.982l-11.857,19.071     c-3.327,5.471-9.273,8.804-15.677,8.786c-6.404-0.018-12.331-3.385-15.627-8.875l-11.018-18.366l-10.839,21.67     c-0.721,1.361-1.782,2.512-3.08,3.341l9.045,31.659c1.135,3.916,4.717,6.614,8.795,6.625h210.129     c4.079-0.012,7.66-2.715,8.791-6.634l9.043-31.65C377.597,326.593,376.536,325.442,375.817,324.08z" data-original="#000000" class="active-path" data-old_color="#000000" fill="#FFFFFF"/>
			<polygon points="178.902,411.419 335.558,411.419 344.129,383.991 168.616,383.991    " data-original="#000000" class="active-path" data-old_color="#000000" fill="#FFFFFF"/>
		</g>
	</g>
</g></g> </svg>
