<svg xmlns="http://www.w3.org/2000/svg" width="25.344" height="170" viewBox="0 0 25.344 170">
  <defs>
    <style>
      .cls-1 {
        fill: #ffe529;
        fill-rule: evenodd;
      }
    </style>
  </defs>
  <path id="Эллипс_5" data-name="Эллипс 5" class="cls-1" d="M450.074,1035.2l-24.5.03v4.69l15.225,9.03-15.225,9.17v4.69h24.5v-5.32H435.689l11.795-7.21v-2.52l-12.075-7.21,14.665-.03v-5.32Zm-4.55-13.48h-5.67v-11.37h-4.41v11.37h-5.32v-12.88h-4.55v18.52h24.5v-18.97h-4.55v13.33Zm-19.95-36.465h9.66v11.13h-9.66v5.665h24.5v-5.665H440.029v-11.13h10.045v-5.67h-24.5v5.67Zm-0.42-35.175a13.789,13.789,0,0,0,1.26,5.915,11.9,11.9,0,0,0,3.553,4.462,12.156,12.156,0,0,0,5.232,2.328v3.29h-9.625v5.635h24.5v-5.635H440.1v-3.22a12.023,12.023,0,0,0,9.083-6.755,13.709,13.709,0,0,0,1.312-6.02,13.413,13.413,0,0,0-1.645-6.633,12.022,12.022,0,0,0-4.532-4.637,13.385,13.385,0,0,0-12.985,0,12.031,12.031,0,0,0-4.533,4.637,13.423,13.423,0,0,0-1.645,6.633h0Zm20.51,0a7.034,7.034,0,0,1-.98,3.675,6.89,6.89,0,0,1-2.765,2.59,9.345,9.345,0,0,1-8.19,0,6.9,6.9,0,0,1-2.765-2.59,7.381,7.381,0,0,1,0-7.35,6.9,6.9,0,0,1,2.765-2.59,9.345,9.345,0,0,1,8.19,0,6.9,6.9,0,0,1,2.765,2.59,7.039,7.039,0,0,1,.98,3.675h0ZM437.5,915a5.5,5.5,0,1,1-5.5,5.5A5.5,5.5,0,0,1,437.5,915Zm0,159a5.5,5.5,0,1,1-5.5,5.5A5.5,5.5,0,0,1,437.5,1074Z" transform="translate(-425.156 -915)"/>
</svg>
