<svg width="512" height="512" xmlns="http://www.w3.org/2000/svg">

 <g>
  <title>background</title>
  <rect fill="none" id="canvas_background" height="402" width="582" y="-1" x="-1"/>
 </g>
 <g>
  <title>Layer 1</title>
  <path fill="#00aeef" transform="rotate(-90, 256.002, 256)" id="svg_1" d="m6.005157,142.619507l2.864372,3.341782l216.419579,249.04158c7.320084,8.434052 18.300156,13.685394 30.553345,13.685394c12.253189,0 23.233292,-5.410522 30.55336,-13.685394l216.260437,-248.564194l3.660004,-4.137421c2.705292,-3.978302 4.29657,-8.752274 4.29657,-13.844498c0,-13.844498 -11.775757,-25.142838 -26.415894,-25.142838l0,0l-456.390686,0l0,0c-14.640144,0 -26.415909,11.29834 -26.415909,25.142838c0,5.251343 1.75045,10.184448 4.614822,14.16275z"/>
 </g>
</svg>