<?xml version="1.0" encoding="utf-8"?>
<!-- Generator: Adobe Illustrator 23.0.2, SVG Export Plug-In . SVG Version: 6.00 Build 0)  -->
<svg version="1.1" id="Слой_1" xmlns="http://www.w3.org/2000/svg" xmlns:xlink="http://www.w3.org/1999/xlink" x="0px" y="0px"
	 viewBox="0 0 400 150.9" style="enable-background:new 0 0 400 150.9;" xml:space="preserve">
<style type="text/css">
	.st0{display:none;fill:#FC8224;}
	.st1{fill:#EBFA00;}
	.st2{fill:#00AA38;}
</style>
<rect class="st0" width="400" height="150.9"/>
<g>
	<path class="st1" d="M116.4,126.4c-5.8-3.6-10.2-8.5-13.5-14.8c-3.2-6.3-4.8-13.5-4.8-21.5c0-8,1.6-15.2,4.8-21.5
		c3.2-6.3,7.7-11.2,13.5-14.8c5.8-3.6,12.2-5.3,19.5-5.3c7.1,0,13.4,1.8,18.7,5.3c5.3,3.6,9.2,8.6,11.7,15.3L151,78.9
		c-3.5-7.4-8.6-11.1-15.2-11.1c-5.1,0-9.4,2-12.7,6c-3.4,4-5,9.5-5,16.4s1.7,12.4,5,16.4c3.4,4,7.6,6,12.7,6
		c6.7,0,11.8-3.7,15.2-11.1l15.2,9.9c-2.4,6.4-6.3,11.4-11.7,15c-5.3,3.6-11.6,5.4-18.7,5.4C128.6,131.7,122.2,130,116.4,126.4z"/>
	<path class="st1" d="M238.5,57.4c5.6,6,8.4,15,8.4,27v46.1h-18.4v-10.1c-3.7,7.5-10.6,11.3-20.7,11.3c-5.2,0-9.7-1.1-13.5-3.2
		c-3.8-2.1-6.7-5-8.8-8.7c-2-3.7-3-7.9-3-12.6c0-7.5,2.4-13.4,7.1-17.7c4.7-4.3,12.1-6.5,22-6.5h15.6c0-5.1-1.3-9-3.9-11.8
		c-2.6-2.8-6.5-4.1-11.7-4.1c-3.6,0-7.2,0.7-10.6,2c-3.5,1.4-6.4,3.2-8.9,5.5l-7.1-16.4c3.7-3.1,8.1-5.5,13.3-7.2
		c5.2-1.7,10.5-2.6,15.9-2.6C224.8,48.5,232.9,51.5,238.5,57.4z M221.8,113.2c2.6-1.9,4.5-4.6,5.5-8.2v-8.3h-13.5
		c-8.1,0-12.1,3.2-12.1,9.5c0,3,1,5.4,3,7.1c2,1.8,4.7,2.6,8.1,2.6C216.2,116,219.2,115,221.8,113.2z"/>
	<path class="st1" d="M295.7,51.5h17.4v18h-16.9v61h-19.6v-61h-10.5v-18h10.5v-3.6c0-9.2,2.3-16.5,6.9-21.9c4.6-5.4,11-8.1,19.3-8.1
		c2.9,0,5.7,0.4,8.4,1.1c2.6,0.8,4.8,1.8,6.6,3.2l-5.2,17c-2.3-1.9-4.9-2.9-7.9-2.9c-6,0-8.9,3.9-8.9,11.7V51.5z"/>
	<path class="st1" d="M397.5,96.7h-51.3c0.9,5,3.1,9,6.5,11.9c3.4,2.9,7.7,4.4,12.8,4.4c3.5,0,6.7-0.6,9.4-1.9
		c2.7-1.3,5.3-3.2,7.6-5.9l10.5,13.5c-6.4,8.7-15.7,13.1-28,13.1c-7.6,0-14.4-1.8-20.3-5.3c-5.9-3.6-10.4-8.5-13.6-14.8
		c-3.2-6.3-4.8-13.5-4.8-21.5c0-7.9,1.6-15,4.7-21.4c3.1-6.4,7.5-11.3,13-14.9c5.5-3.6,11.7-5.3,18.5-5.3c6.6,0,12.6,1.7,18,5.1
		c5.4,3.4,9.6,8.3,12.7,14.7c3.1,6.4,4.6,13.7,4.6,22.2C397.9,90.7,397.7,92.8,397.5,96.7z M351.5,70.7c-3,3-4.9,7.1-5.5,12.3h33.4
		c-0.7-5.1-2.5-9.2-5.5-12.2c-3-3.1-6.7-4.6-11.1-4.6C358.3,66.2,354.5,67.7,351.5,70.7z"/>
</g>
<path class="st2" d="M86.8,50.5l-1.7,31l-0.2-0.2c-0.7,12.1-7.5,25.1-19.3,34.9c-1.9,1.6-3.9,3-5.9,4.3c-7.5,4.9-15.7,7.7-23.4,8.4
	c-0.7,0.1-1.5,0.1-2.2,0.2l0.2,0.2l-31.9,2.3l-1.3-31l0.2,0.2C0.9,88,7.8,73.5,20.6,62.9c4.9-4.1,10.3-7.2,15.7-9.4
	C42.6,51,49,49.8,55,49.9l-0.2-0.2l4.9,0.1L86.8,50.5z"/>
<path class="st1" d="M59.7,49.8v70.7c-7.5,4.9-15.7,7.7-23.4,8.4V53.5C42.6,51,49,49.8,55,49.9l-0.2-0.2L59.7,49.8z"/>
<rect x="35.9" y="15.8" class="st1" width="24.1" height="24.1"/>
<path class="st2" d="M380.1,9.6l-0.6,11.8l-0.1-0.1c-0.2,4.6-2.5,9.6-6.5,13.4c-3.3,3.1-7.1,4.8-10.7,4.9l0.1,0.1l-10.8,0.9
	l-0.4-11.8l0.1,0.1c-0.1-4.9,2.2-10.4,6.5-14.5c3.6-3.4,7.8-5,11.6-5l-0.1-0.1L380.1,9.6z"/>
</svg>
